STARTFONT 2.1
COMMENT
COMMENT  This font is copyrighted by Roar Lauritzsen, who reserves all rights
COMMENT  under national and international copyright laws.
COMMENT
COMMENT  Produced with bdfedit, a tcl/tk font editing program
COMMENT    written by Thomas A. Fine
COMMENT    fine@head-cfa.harvard.edu
COMMENT    http://hea-www.harvard.edu/~fine/
FONT -misc-nethack-bold-r-normal--24-160-100-100-c-160--custom
SIZE 24 72 72
FONTBOUNDINGBOX 16 16 0 -3
STARTPROPERTIES 11
FOUNDRY "Misc"
FAMILY_NAME "Nethack"
WEIGHT_NAME "Bold"
SLANT "R"
SETWIDTH_NAME "Normal"
SPACING "c"
CHARSET_REGISTRY "ISO-8859"
CHARSET_ENCODING "1"
COPYRIGHT "Designer of this font, Roar Lauritzsen, retains full rights under the law"
FONT_ASCENT  13
FONT_DESCENT 3
ENDPROPERTIES
CHARS 191
STARTCHAR C040
ENCODING 32
SWIDTH 666 0
DWIDTH 16 0
BBX 0 0 0 0
BITMAP
ENDCHAR
STARTCHAR C041
ENCODING 33
SWIDTH 666 0
DWIDTH 16 0
BBX 3 12 7 0
BITMAP
e0
e0
e0
e0
e0
e0
e0
c0
c0
00
e0
e0
ENDCHAR
STARTCHAR C042
ENCODING 34
SWIDTH 666 0
DWIDTH 16 0
BBX 7 4 4 8
BITMAP
ee
ee
cc
88
ENDCHAR
STARTCHAR C043
ENCODING 35
SWIDTH 666 0
DWIDTH 16 0
BBX 12 12 2 -1
BITMAP
1980
1980
1980
fff0
fff0
1980
1980
fff0
fff0
1980
1980
1980
ENDCHAR
STARTCHAR C044
ENCODING 36
SWIDTH 666 0
DWIDTH 16 0
BBX 12 13 2 -1
BITMAP
0600
1f80
76e0
e670
e600
7600
3fc0
06e0
0670
e670
76e0
1f80
0600
ENDCHAR
STARTCHAR C045
ENCODING 37
SWIDTH 666 0
DWIDTH 16 0
BBX 12 12 2 0
BITMAP
3830
6c70
cce0
d9c0
7380
0700
0e00
1ce0
39b0
7330
e360
c1c0
ENDCHAR
STARTCHAR C046
ENCODING 38
SWIDTH 666 0
DWIDTH 16 0
BBX 13 13 3 -2
BITMAP
8080
c180
2a38
3e28
4908
7f38
f7a0
dda0
dd80
1c00
3c00
7600
e300
ENDCHAR
STARTCHAR C047
ENCODING 39
SWIDTH 666 0
DWIDTH 16 0
BBX 4 5 5 7
BITMAP
f0
f0
70
60
40
ENDCHAR
STARTCHAR C050
ENCODING 40
SWIDTH 666 0
DWIDTH 16 0
BBX 6 13 5 -1
BITMAP
3c
70
70
e0
e0
e0
e0
e0
e0
e0
70
70
3c
ENDCHAR
STARTCHAR C051
ENCODING 41
SWIDTH 666 0
DWIDTH 16 0
BBX 6 13 5 -1
BITMAP
f0
38
38
1c
1c
1c
1c
1c
1c
1c
38
38
f0
ENDCHAR
STARTCHAR C052
ENCODING 42
SWIDTH 666 0
DWIDTH 16 0
BBX 10 10 3 0
BITMAP
0c00
0c00
ccc0
edc0
3f00
3f00
edc0
ccc0
0c00
0c00
ENDCHAR
STARTCHAR C053
ENCODING 43
SWIDTH 666 0
DWIDTH 16 0
BBX 12 12 2 -1
BITMAP
0600
0600
0600
0600
0600
fff0
fff0
0600
0600
0600
0600
0600
ENDCHAR
STARTCHAR C054
ENCODING 44
SWIDTH 666 0
DWIDTH 16 0
BBX 4 5 6 -2
BITMAP
f0
f0
70
60
40
ENDCHAR
STARTCHAR C055
ENCODING 45
SWIDTH 666 0
DWIDTH 16 0
BBX 16 4 0 3
BITMAP
6666
ffff
ffff
6666
ENDCHAR
STARTCHAR C056
ENCODING 46
SWIDTH 666 0
DWIDTH 16 0
BBX 4 3 6 0
BITMAP
f0
f0
f0
ENDCHAR
STARTCHAR C057
ENCODING 47
SWIDTH 666 0
DWIDTH 16 0
BBX 16 16 0 -3
BITMAP
0007
000f
000f
001e
0078
00f0
00f0
01e0
0780
0f00
0f00
1e00
7800
f000
f000
e000
ENDCHAR
STARTCHAR C060
ENCODING 48
SWIDTH 666 0
DWIDTH 16 0
BBX 11 12 3 0
BITMAP
1f00
3180
71c0
60c0
e0e0
e0e0
e0e0
e0e0
60c0
71c0
3180
1f00
ENDCHAR
STARTCHAR C061
ENCODING 49
SWIDTH 666 0
DWIDTH 16 0
BBX 9 12 4 0
BITMAP
1c00
3c00
7c00
dc00
1c00
1c00
1c00
1c00
1c00
1c00
1c00
ff80
ENDCHAR
STARTCHAR C062
ENCODING 50
SWIDTH 666 0
DWIDTH 16 0
BBX 12 12 2 0
BITMAP
1f80
70e0
e070
0070
0070
00e0
0380
0f00
3c00
7000
e000
fff0
ENDCHAR
STARTCHAR C063
ENCODING 51
SWIDTH 666 0
DWIDTH 16 0
BBX 12 12 2 0
BITMAP
1f80
70e0
e070
0070
00e0
0f80
00e0
0070
0070
e070
70e0
1f80
ENDCHAR
STARTCHAR C064
ENCODING 52
SWIDTH 666 0
DWIDTH 16 0
BBX 12 12 2 0
BITMAP
01c0
03c0
07c0
0fc0
1dc0
39c0
71c0
e1c0
fff0
01c0
01c0
01c0
ENDCHAR
STARTCHAR C065
ENCODING 53
SWIDTH 666 0
DWIDTH 16 0
BBX 12 12 2 0
BITMAP
ffe0
e000
e000
e000
e000
ff80
00e0
0070
0070
e070
70e0
1f80
ENDCHAR
STARTCHAR C066
ENCODING 54
SWIDTH 666 0
DWIDTH 16 0
BBX 12 12 2 0
BITMAP
0f80
38e0
7070
7000
e000
ef80
f8e0
e070
e070
e070
70e0
1f80
ENDCHAR
STARTCHAR C067
ENCODING 55
SWIDTH 666 0
DWIDTH 16 0
BBX 12 12 2 0
BITMAP
fff0
0070
0070
00e0
01c0
0380
0700
0e00
1c00
3800
3800
3800
ENDCHAR
STARTCHAR C070
ENCODING 56
SWIDTH 666 0
DWIDTH 16 0
BBX 12 12 2 0
BITMAP
1f80
70e0
e070
e070
70e0
1f80
70e0
e070
e070
e070
70e0
1f80
ENDCHAR
STARTCHAR C071
ENCODING 57
SWIDTH 666 0
DWIDTH 16 0
BBX 12 12 2 0
BITMAP
1f80
70e0
e070
e070
e070
71f0
1f70
0070
00e0
e0e0
71c0
1f00
ENDCHAR
STARTCHAR C072
ENCODING 58
SWIDTH 666 0
DWIDTH 16 0
BBX 4 9 6 0
BITMAP
f0
f0
f0
00
00
00
f0
f0
f0
ENDCHAR
STARTCHAR C073
ENCODING 59
SWIDTH 666 0
DWIDTH 16 0
BBX 4 11 6 -2
BITMAP
f0
f0
f0
00
00
00
f0
f0
70
60
40
ENDCHAR
STARTCHAR C074
ENCODING 60
SWIDTH 666 0
DWIDTH 16 0
BBX 11 11 2 -1
BITMAP
0060
01e0
0780
1e00
7800
e000
7800
1e00
0780
01e0
0060
ENDCHAR
STARTCHAR C075
ENCODING 61
SWIDTH 666 0
DWIDTH 16 0
BBX 12 7 2 1
BITMAP
fff0
fff0
0000
0000
0000
fff0
fff0
ENDCHAR
STARTCHAR C076
ENCODING 62
SWIDTH 666 0
DWIDTH 16 0
BBX 11 11 3 -1
BITMAP
c000
f000
3c00
0f00
03c0
00e0
03c0
0f00
3c00
f000
c000
ENDCHAR
STARTCHAR C077
ENCODING 63
SWIDTH 666 0
DWIDTH 16 0
BBX 12 12 2 0
BITMAP
1f80
70e0
e070
e070
0070
00e0
0380
0700
0700
0000
0700
0700
ENDCHAR
STARTCHAR C100
ENCODING 64
SWIDTH 666 0
DWIDTH 16 0
BBX 8 13 3 -2
BITMAP
18
3c
3c
3c
18
66
ff
bd
bd
bd
34
24
66
ENDCHAR
STARTCHAR C101
ENCODING 65
SWIDTH 666 0
DWIDTH 16 0
BBX 13 12 2 0
BITMAP
0700
0f80
0f80
1dc0
1dc0
38e0
38e0
7070
7ff0
7070
e038
e038
ENDCHAR
STARTCHAR C102
ENCODING 66
SWIDTH 666 0
DWIDTH 16 0
BBX 12 12 2 0
BITMAP
ff80
e0e0
e070
e070
e0e0
ffc0
e0e0
e070
e070
e070
e0e0
ff80
ENDCHAR
STARTCHAR C103
ENCODING 67
SWIDTH 666 0
DWIDTH 16 0
BBX 12 12 2 0
BITMAP
0f80
38e0
7070
7000
e000
e000
e000
e000
7000
7070
38e0
0f80
ENDCHAR
STARTCHAR C104
ENCODING 68
SWIDTH 666 0
DWIDTH 16 0
BBX 13 12 2 0
BITMAP
ff80
e0e0
e070
e070
e038
e038
e038
e038
e070
e070
e0e0
ff80
ENDCHAR
STARTCHAR C105
ENCODING 69
SWIDTH 666 0
DWIDTH 16 0
BBX 12 12 2 0
BITMAP
fff0
e000
e000
e000
e000
ffe0
e000
e000
e000
e000
e000
fff0
ENDCHAR
STARTCHAR C106
ENCODING 70
SWIDTH 666 0
DWIDTH 16 0
BBX 12 12 2 0
BITMAP
fff0
e000
e000
e000
e000
e000
ffe0
e000
e000
e000
e000
e000
ENDCHAR
STARTCHAR C107
ENCODING 71
SWIDTH 666 0
DWIDTH 16 0
BBX 12 12 2 0
BITMAP
0f80
38e0
7070
7000
e000
e000
e3f0
e070
7070
7070
38f0
0f70
ENDCHAR
STARTCHAR C110
ENCODING 72
SWIDTH 666 0
DWIDTH 16 0
BBX 13 12 2 0
BITMAP
e038
e038
e038
e038
e038
fff8
e038
e038
e038
e038
e038
e038
ENDCHAR
STARTCHAR C111
ENCODING 73
SWIDTH 666 0
DWIDTH 16 0
BBX 9 12 4 0
BITMAP
ff80
1c00
1c00
1c00
1c00
1c00
1c00
1c00
1c00
1c00
1c00
ff80
ENDCHAR
STARTCHAR C112
ENCODING 74
SWIDTH 666 0
DWIDTH 16 0
BBX 10 12 4 0
BITMAP
7fc0
01c0
01c0
01c0
01c0
01c0
01c0
01c0
0380
0380
0700
fc00
ENDCHAR
STARTCHAR C113
ENCODING 75
SWIDTH 666 0
DWIDTH 16 0
BBX 13 12 2 0
BITMAP
e078
e0f0
e1c0
e380
e700
ee00
fc00
ef00
e380
e1c0
e0f0
e078
ENDCHAR
STARTCHAR C114
ENCODING 76
SWIDTH 666 0
DWIDTH 16 0
BBX 11 12 2 0
BITMAP
e000
e000
e000
e000
e000
e000
e000
e000
e000
e000
e000
ffe0
ENDCHAR
STARTCHAR C115
ENCODING 77
SWIDTH 666 0
DWIDTH 16 0
BBX 13 12 2 0
BITMAP
c018
e038
f078
f8f8
fdf8
efb8
e738
e238
e038
e038
e038
e038
ENDCHAR
STARTCHAR C116
ENCODING 78
SWIDTH 666 0
DWIDTH 16 0
BBX 13 12 2 0
BITMAP
c038
e038
f038
f838
fc38
ee38
e738
e3b8
e1f8
e0f8
e078
e038
ENDCHAR
STARTCHAR C117
ENCODING 79
SWIDTH 666 0
DWIDTH 16 0
BBX 13 12 2 0
BITMAP
0f80
38e0
7070
7070
e038
e038
e038
e038
7070
7070
38e0
0f80
ENDCHAR
STARTCHAR C120
ENCODING 80
SWIDTH 666 0
DWIDTH 16 0
BBX 12 12 2 0
BITMAP
ff80
e0e0
e070
e070
e070
e0e0
ffc0
e000
e000
e000
e000
e000
ENDCHAR
STARTCHAR C121
ENCODING 81
SWIDTH 666 0
DWIDTH 16 0
BBX 13 15 2 -3
BITMAP
0f80
38e0
7070
7070
e038
e038
e038
e038
7070
7e70
3be0
0f80
0180
01e0
00e0
ENDCHAR
STARTCHAR C122
ENCODING 82
SWIDTH 666 0
DWIDTH 16 0
BBX 12 12 2 0
BITMAP
ff80
e0e0
e070
e070
e070
e0e0
ffc0
e1c0
e0e0
e0e0
e070
e070
ENDCHAR
STARTCHAR C123
ENCODING 83
SWIDTH 666 0
DWIDTH 16 0
BBX 12 12 2 0
BITMAP
1f80
70e0
e070
e000
7000
3f80
01e0
0070
0070
e070
70e0
1f80
ENDCHAR
STARTCHAR C124
ENCODING 84
SWIDTH 666 0
DWIDTH 16 0
BBX 13 12 2 0
BITMAP
fff8
0700
0700
0700
0700
0700
0700
0700
0700
0700
0700
0700
ENDCHAR
STARTCHAR C125
ENCODING 85
SWIDTH 666 0
DWIDTH 16 0
BBX 13 12 2 0
BITMAP
e038
e038
e038
e038
e038
e038
e038
e038
7070
7070
38e0
0f80
ENDCHAR
STARTCHAR C126
ENCODING 86
SWIDTH 666 0
DWIDTH 16 0
BBX 13 12 2 0
BITMAP
e038
e038
7070
7070
7070
38e0
38e0
1dc0
1dc0
0d80
0f80
0700
ENDCHAR
STARTCHAR C127
ENCODING 87
SWIDTH 666 0
DWIDTH 16 0
BBX 13 12 2 0
BITMAP
e038
e038
e038
e238
e238
e738
7770
7770
7df0
7df0
3de0
38e0
ENDCHAR
STARTCHAR C130
ENCODING 88
SWIDTH 666 0
DWIDTH 16 0
BBX 12 12 2 0
BITMAP
e070
e070
e070
70e0
39c0
1f80
0f00
1f80
39c0
70e0
e070
e070
ENDCHAR
STARTCHAR C131
ENCODING 89
SWIDTH 666 0
DWIDTH 16 0
BBX 13 12 2 0
BITMAP
e038
e038
e038
7070
38e0
1dc0
0f80
0700
0700
0700
0700
0700
ENDCHAR
STARTCHAR C132
ENCODING 90
SWIDTH 666 0
DWIDTH 16 0
BBX 13 12 2 0
BITMAP
fff8
0038
0070
00e0
01c0
0380
0700
0e00
1c00
3800
7000
fff8
ENDCHAR
STARTCHAR C133
ENCODING 91
SWIDTH 666 0
DWIDTH 16 0
BBX 6 13 5 -1
BITMAP
fc
e0
e0
e0
e0
e0
e0
e0
e0
e0
e0
e0
fc
ENDCHAR
STARTCHAR C134
ENCODING 92
SWIDTH 666 0
DWIDTH 16 0
BBX 16 16 0 -3
BITMAP
e000
f000
f000
7800
1e00
0f00
0f00
0780
01e0
00f0
00f0
0078
001e
000f
000f
0007
ENDCHAR
STARTCHAR C135
ENCODING 93
SWIDTH 666 0
DWIDTH 16 0
BBX 6 13 5 -1
BITMAP
fc
1c
1c
1c
1c
1c
1c
1c
1c
1c
1c
1c
fc
ENDCHAR
STARTCHAR C136
ENCODING 94
SWIDTH 666 0
DWIDTH 16 0
BBX 11 6 3 5
BITMAP
0400
0e00
1f00
3b80
71c0
e0e0
ENDCHAR
STARTCHAR C137
ENCODING 95
SWIDTH 666 0
DWIDTH 16 0
BBX 14 2 1 -3
BITMAP
fffc
fffc
ENDCHAR
STARTCHAR C140
ENCODING 96
SWIDTH 666 0
DWIDTH 16 0
BBX 4 5 7 7
BITMAP
f0
f0
e0
60
20
ENDCHAR
STARTCHAR C141
ENCODING 97
SWIDTH 666 0
DWIDTH 16 0
BBX 13 9 2 0
BITMAP
7fc0
6070
0038
1ff8
7038
e038
e078
70f8
1fb8
ENDCHAR
STARTCHAR C142
ENCODING 98
SWIDTH 666 0
DWIDTH 16 0
BBX 13 12 2 0
BITMAP
e000
e000
e000
ef80
f8e0
e070
e038
e038
e038
e070
f8e0
ef80
ENDCHAR
STARTCHAR C143
ENCODING 99
SWIDTH 666 0
DWIDTH 16 0
BBX 12 9 2 0
BITMAP
0fc0
3870
7030
e000
e000
e000
7000
3870
0fc0
ENDCHAR
STARTCHAR C144
ENCODING 100
SWIDTH 666 0
DWIDTH 16 0
BBX 13 12 2 0
BITMAP
0038
0038
0038
0fb8
38f8
7078
e038
e038
e038
7078
38f8
0fb8
ENDCHAR
STARTCHAR C145
ENCODING 101
SWIDTH 666 0
DWIDTH 16 0
BBX 13 9 2 0
BITMAP
0fc0
3870
7038
e038
fff8
e000
7000
3838
0fe0
ENDCHAR
STARTCHAR C146
ENCODING 102
SWIDTH 666 0
DWIDTH 16 0
BBX 9 12 4 0
BITMAP
0780
1c00
3800
3800
ff80
3800
3800
3800
3800
3800
3800
3800
ENDCHAR
STARTCHAR C147
ENCODING 103
SWIDTH 666 0
DWIDTH 16 0
BBX 13 12 2 -3
BITMAP
0fb8
38f8
7078
e038
e038
e038
7078
38f8
0fb8
0038
e070
3fc0
ENDCHAR
STARTCHAR C150
ENCODING 104
SWIDTH 666 0
DWIDTH 16 0
BBX 13 12 2 0
BITMAP
e000
e000
e000
ef80
f8e0
e070
e038
e038
e038
e038
e038
e038
ENDCHAR
STARTCHAR C151
ENCODING 105
SWIDTH 666 0
DWIDTH 16 0
BBX 7 12 4 0
BITMAP
0e
0e
00
fe
0e
0e
0e
0e
0e
0e
0e
0e
ENDCHAR
STARTCHAR C152
ENCODING 106
SWIDTH 666 0
DWIDTH 16 0
BBX 7 15 4 -3
BITMAP
0e
0e
00
fe
0e
0e
0e
0e
0e
0e
0e
0e
0e
1c
f0
ENDCHAR
STARTCHAR C153
ENCODING 107
SWIDTH 666 0
DWIDTH 16 0
BBX 13 12 2 0
BITMAP
e000
e000
e000
e078
e0f0
e3c0
ef00
fc00
ef00
e3c0
e0f0
e078
ENDCHAR
STARTCHAR C154
ENCODING 108
SWIDTH 666 0
DWIDTH 16 0
BBX 7 12 4 0
BITMAP
fe
0e
0e
0e
0e
0e
0e
0e
0e
0e
0e
0e
ENDCHAR
STARTCHAR C155
ENCODING 109
SWIDTH 666 0
DWIDTH 16 0
BBX 13 9 2 0
BITMAP
dde0
f730
e738
e738
e738
e738
e738
e738
e738
ENDCHAR
STARTCHAR C156
ENCODING 110
SWIDTH 666 0
DWIDTH 16 0
BBX 13 9 2 0
BITMAP
ef80
f8e0
e070
e038
e038
e038
e038
e038
e038
ENDCHAR
STARTCHAR C157
ENCODING 111
SWIDTH 666 0
DWIDTH 16 0
BBX 13 9 2 0
BITMAP
0f80
38e0
7070
e038
e038
e038
7070
38e0
0f80
ENDCHAR
STARTCHAR C160
ENCODING 112
SWIDTH 666 0
DWIDTH 16 0
BBX 13 12 2 -3
BITMAP
ef80
f8e0
e070
e038
e038
e038
e070
f8e0
ef80
e000
e000
e000
ENDCHAR
STARTCHAR C161
ENCODING 113
SWIDTH 666 0
DWIDTH 16 0
BBX 13 12 2 -3
BITMAP
0fb8
38f8
7078
e038
e038
e038
7078
38f8
0fb8
0038
0038
0038
ENDCHAR
STARTCHAR C162
ENCODING 114
SWIDTH 666 0
DWIDTH 16 0
BBX 12 9 2 0
BITMAP
efe0
f870
e070
e000
e000
e000
e000
e000
e000
ENDCHAR
STARTCHAR C163
ENCODING 115
SWIDTH 666 0
DWIDTH 16 0
BBX 13 9 2 0
BITMAP
1ff0
7038
e000
f000
7ff0
0078
0038
e070
7fc0
ENDCHAR
STARTCHAR C164
ENCODING 116
SWIDTH 666 0
DWIDTH 16 0
BBX 9 12 4 0
BITMAP
1800
3800
3800
ff80
3800
3800
3800
3800
3800
3800
1c00
0780
ENDCHAR
STARTCHAR C165
ENCODING 117
SWIDTH 666 0
DWIDTH 16 0
BBX 13 9 2 0
BITMAP
e038
e038
e038
e038
e038
e038
7078
38f8
0fb8
ENDCHAR
STARTCHAR C166
ENCODING 118
SWIDTH 666 0
DWIDTH 16 0
BBX 13 9 2 0
BITMAP
e038
e038
7070
7070
38e0
1dc0
1dc0
0f80
0700
ENDCHAR
STARTCHAR C167
ENCODING 119
SWIDTH 666 0
DWIDTH 16 0
BBX 13 9 2 0
BITMAP
e038
e038
e238
e238
7770
7770
7df0
3de0
38e0
ENDCHAR
STARTCHAR C170
ENCODING 120
SWIDTH 666 0
DWIDTH 16 0
BBX 12 9 2 0
BITMAP
e070
70e0
39c0
1f80
0f00
1f80
39c0
70e0
e070
ENDCHAR
STARTCHAR C171
ENCODING 121
SWIDTH 666 0
DWIDTH 16 0
BBX 13 12 2 -3
BITMAP
e038
e038
e038
e038
e038
e038
7078
38f8
0fb8
0038
e070
3fc0
ENDCHAR
STARTCHAR C172
ENCODING 122
SWIDTH 666 0
DWIDTH 16 0
BBX 11 9 3 0
BITMAP
ffe0
01c0
0380
0700
0e00
1c00
3800
7000
ffe0
ENDCHAR
STARTCHAR C173
ENCODING 123
SWIDTH 666 0
DWIDTH 16 0
BBX 8 13 3 -1
BITMAP
1f
38
38
38
1c
1c
f0
1c
1c
38
38
38
1f
ENDCHAR
STARTCHAR C174
ENCODING 124
SWIDTH 666 0
DWIDTH 16 0
BBX 4 16 6 -3
BITMAP
60
f0
f0
60
60
f0
f0
60
60
f0
f0
60
60
f0
f0
60
ENDCHAR
STARTCHAR C175
ENCODING 125
SWIDTH 666 0
DWIDTH 16 0
BBX 8 13 5 -1
BITMAP
f8
1c
1c
1c
38
38
0f
38
38
1c
1c
1c
f8
ENDCHAR
STARTCHAR C176
ENCODING 126
SWIDTH 666 0
DWIDTH 16 0
BBX 11 4 3 7
BITMAP
3860
7e60
cfc0
c380
ENDCHAR
STARTCHAR C240
ENCODING 160
SWIDTH 666 0
DWIDTH 16 0
BBX 13 13 1 -2
BITMAP
8008
4010
2020
1040
0880
0500
0200
0500
0880
1040
2020
4010
8008
ENDCHAR
STARTCHAR C241
ENCODING 161
SWIDTH 666 0
DWIDTH 16 0
BBX 7 10 4 0
BITMAP
38
38
7c
38
7c
fe
fe
f2
c2
7c
ENDCHAR
STARTCHAR C242
ENCODING 162
SWIDTH 666 0
DWIDTH 16 0
BBX 13 13 1 -2
BITMAP
8008
4010
2020
1040
0880
0500
0200
0500
0880
1040
2020
4010
8008
ENDCHAR
STARTCHAR C243
ENCODING 163
SWIDTH 666 0
DWIDTH 16 0
BBX 13 13 1 -2
BITMAP
8008
4010
2020
1040
0880
0500
0200
0500
0880
1040
2020
4010
8008
ENDCHAR
STARTCHAR C244
ENCODING 164
SWIDTH 666 0
DWIDTH 16 0
BBX 14 10 1 -2
BITMAP
0180
0cc0
1b60
0780
3360
78f0
3660
4f18
e6bc
f1d8
ENDCHAR
STARTCHAR C245
ENCODING 165
SWIDTH 666 0
DWIDTH 16 0
BBX 14 14 1 -2
BITMAP
3000
3000
3000
7800
fbf0
f7f8
eff4
ffec
e854
52ac
f034
14a8
1030
1fe0
ENDCHAR
STARTCHAR C246
ENCODING 166
SWIDTH 666 0
DWIDTH 16 0
BBX 13 13 1 -2
BITMAP
8008
4010
2020
1040
0880
0500
0200
0500
0880
1040
2020
4010
8008
ENDCHAR
STARTCHAR C247
ENCODING 167
SWIDTH 666 0
DWIDTH 16 0
BBX 11 14 2 -2
BITMAP
0400
1e00
1f00
0f00
0600
e600
f5e0
aee0
0f00
0e00
0600
1900
18c0
30c0
ENDCHAR
STARTCHAR C250
ENCODING 168
SWIDTH 666 0
DWIDTH 16 0
BBX 13 6 1 0
BITMAP
0100
c7c0
3ff8
1fe8
0380
07c0
ENDCHAR
STARTCHAR C251
ENCODING 169
SWIDTH 666 0
DWIDTH 16 0
BBX 10 11 3 -1
BITMAP
8000
c000
e000
7000
3800
1c00
0e80
0700
0d80
00c0
0040
ENDCHAR
STARTCHAR C252
ENCODING 170
SWIDTH 666 0
DWIDTH 16 0
BBX 11 10 2 0
BITMAP
0400
8420
4040
1f00
3e80
7f40
3e80
1d00
0e00
0400
ENDCHAR
STARTCHAR C253
ENCODING 171
SWIDTH 666 0
DWIDTH 16 0
BBX 13 13 2 -2
BITMAP
0e00
1fc0
18f0
3370
39e8
6ce8
71d0
ffd0
9fa0
83a0
6040
1c40
0380
ENDCHAR
STARTCHAR C254
ENCODING 172
SWIDTH 666 0
DWIDTH 16 0
BBX 13 13 1 -2
BITMAP
8008
4010
2020
1040
0880
0500
0200
0500
0880
1040
2020
4010
8008
ENDCHAR
STARTCHAR C255
ENCODING 173
SWIDTH 666 0
DWIDTH 16 0
BBX 13 13 1 -2
BITMAP
8008
4010
2020
1040
0880
0500
0200
0500
0880
1040
2020
4010
8008
ENDCHAR
STARTCHAR C256
ENCODING 174
SWIDTH 666 0
DWIDTH 16 0
BBX 13 13 1 -2
BITMAP
8008
4010
2020
1040
0880
0500
0200
0500
0880
1040
2020
4010
8008
ENDCHAR
STARTCHAR C257
ENCODING 175
SWIDTH 666 0
DWIDTH 16 0
BBX 12 10 2 0
BITMAP
0070
00e0
01c0
0280
0500
0e00
1c00
2800
7000
e000
ENDCHAR
STARTCHAR C260
ENCODING 176
SWIDTH 666 0
DWIDTH 16 0
BBX 13 13 1 -2
BITMAP
8008
4010
2020
1040
0880
0500
0200
0500
0880
1040
2020
4010
8008
ENDCHAR
STARTCHAR C261
ENCODING 177
SWIDTH 666 0
DWIDTH 16 0
BBX 11 13 2 -1
BITMAP
1f00
3f80
7fc0
4040
cc60
f8e0
f1e0
e3e0
c760
4040
7fc0
3f80
1f00
ENDCHAR
STARTCHAR C262
ENCODING 178
SWIDTH 666 0
DWIDTH 16 0
BBX 11 13 2 -1
BITMAP
1f00
3f80
71c0
64c0
cc60
ce60
df60
df60
ce60
64c0
71c0
3f80
1f00
ENDCHAR
STARTCHAR C263
ENCODING 179
SWIDTH 666 0
DWIDTH 16 0
BBX 11 13 2 -1
BITMAP
1f00
3b80
71c0
60c0
fba0
fa60
e0e0
cbe0
bbe0
60c0
71c0
3b80
1f00
ENDCHAR
STARTCHAR C264
ENCODING 180
SWIDTH 666 0
DWIDTH 16 0
BBX 11 13 2 -1
BITMAP
1f00
3f00
7f40
7e40
de60
cc60
c060
c660
cf60
4fc0
5fc0
1f80
1f00
ENDCHAR
STARTCHAR C265
ENCODING 181
SWIDTH 666 0
DWIDTH 16 0
BBX 11 13 3 -1
BITMAP
1f00
1f80
5fc0
4fc0
cf60
c660
c060
cc60
de60
7e40
7f40
3f00
1f00
ENDCHAR
STARTCHAR C266
ENCODING 182
SWIDTH 666 0
DWIDTH 16 0
BBX 11 13 2 -1
BITMAP
1f00
3f80
63c0
67c0
ebe0
fde0
fbe0
f7e0
fae0
7cc0
78c0
3f80
1f00
ENDCHAR
STARTCHAR C267
ENCODING 183
SWIDTH 666 0
DWIDTH 16 0
BBX 14 15 1 -2
BITMAP
1e00
4330
dc0c
d098
42ac
9d0c
b058
30c0
a228
206c
bbd4
cc04
464c
7cf8
1870
ENDCHAR
STARTCHAR C270
ENCODING 184
SWIDTH 666 0
DWIDTH 16 0
BBX 14 14 1 -2
BITMAP
0fc0
3ff0
7ff8
7ff8
fffc
fffc
fffc
fffc
fffc
fffc
7ff8
7ff8
3ff0
0fc0
ENDCHAR
STARTCHAR C271
ENCODING 185
SWIDTH 666 0
DWIDTH 16 0
BBX 13 13 1 -2
BITMAP
8008
4010
2020
1040
0880
0500
0200
0500
0880
1040
2020
4010
8008
ENDCHAR
STARTCHAR C272
ENCODING 186
SWIDTH 666 0
DWIDTH 16 0
BBX 11 8 2 -1
BITMAP
0e00
3f80
43c0
0fe0
7f20
5e00
fc00
c600
ENDCHAR
STARTCHAR C273
ENCODING 187
SWIDTH 666 0
DWIDTH 16 0
BBX 12 12 2 -2
BITMAP
3800
6c00
fe00
f600
6630
0e60
0c60
1c60
18c0
1980
1f80
0f00
ENDCHAR
STARTCHAR C274
ENCODING 188
SWIDTH 666 0
DWIDTH 16 0
BBX 13 13 1 -2
BITMAP
8008
4010
2020
1040
0880
0500
0200
0500
0880
1040
2020
4010
8008
ENDCHAR
STARTCHAR C275
ENCODING 189
SWIDTH 666 0
DWIDTH 16 0
BBX 7 8 4 1
BITMAP
38
7c
38
7c
c6
82
c6
7c
ENDCHAR
STARTCHAR C276
ENCODING 190
SWIDTH 666 0
DWIDTH 16 0
BBX 13 13 1 -2
BITMAP
8008
4010
2020
1040
0880
0500
0200
0500
0880
1040
2020
4010
8008
ENDCHAR
STARTCHAR C277
ENCODING 191
SWIDTH 666 0
DWIDTH 16 0
BBX 10 12 3 -1
BITMAP
7e80
fec0
7e80
0000
3f00
2b00
3f00
3f00
1500
7e80
fec0
7e80
ENDCHAR
STARTCHAR C300
ENCODING 192
SWIDTH 666 0
DWIDTH 16 0
BBX 13 13 1 -2
BITMAP
8008
4010
2020
1040
0880
0500
0200
0500
0880
1040
2020
4010
8008
ENDCHAR
STARTCHAR C301
ENCODING 193
SWIDTH 666 0
DWIDTH 16 0
BBX 14 14 0 -2
BITMAP
0790
4840
1320
2794
2508
a788
2310
4cc8
9fe4
97a4
9024
4488
2690
4cc8
ENDCHAR
STARTCHAR C302
ENCODING 194
SWIDTH 666 0
DWIDTH 16 0
BBX 13 13 1 -2
BITMAP
8008
4010
2020
1040
0880
0500
0200
0500
0880
1040
2020
4010
8008
ENDCHAR
STARTCHAR C303
ENCODING 195
SWIDTH 666 0
DWIDTH 16 0
BBX 13 13 1 -2
BITMAP
8008
4010
2020
1040
0880
0500
0200
0500
0880
1040
2020
4010
8008
ENDCHAR
STARTCHAR C304
ENCODING 196
SWIDTH 666 0
DWIDTH 16 0
BBX 14 16 0 -3
BITMAP
03c0
05e0
0fe0
0e60
50e0
c1c0
0380
0f00
3fe0
7ff8
7ff8
fffc
dfec
cc6c
0c1c
00f8
ENDCHAR
STARTCHAR C305
ENCODING 197
SWIDTH 666 0
DWIDTH 16 0
BBX 8 14 2 -2
BITMAP
3c
6a
7e
e7
ff
bd
b9
99
bd
b5
b5
34
76
f7
ENDCHAR
STARTCHAR C306
ENCODING 198
SWIDTH 666 0
DWIDTH 16 0
BBX 12 11 1 0
BITMAP
38e0
7fe0
cf70
cff0
7fe0
1fe0
3ec0
7ee0
6fb0
7ff0
39f0
ENDCHAR
STARTCHAR C307
ENCODING 199
SWIDTH 666 0
DWIDTH 16 0
BBX 7 10 4 -1
BITMAP
10
38
7c
44
ee
fe
ba
d6
fe
fe
ENDCHAR
STARTCHAR C310
ENCODING 200
SWIDTH 666 0
DWIDTH 16 0
BBX 12 16 2 -3
BITMAP
1f00
3fc0
3fc0
2640
3fc0
1980
0f00
3fc0
7fe0
fff0
9f90
9f90
dfb0
ddb0
1dc0
7df0
ENDCHAR
STARTCHAR C311
ENCODING 201
SWIDTH 666 0
DWIDTH 16 0
BBX 13 13 1 -2
BITMAP
8008
4010
2020
1040
0880
0500
0200
0500
0880
1040
2020
4010
8008
ENDCHAR
STARTCHAR C312
ENCODING 202
SWIDTH 666 0
DWIDTH 16 0
BBX 13 14 1 -2
BITMAP
3000
19c0
5ba0
3700
3e00
7b00
f780
5340
6e30
77b0
07f8
1df0
1980
30c0
ENDCHAR
STARTCHAR C313
ENCODING 203
SWIDTH 666 0
DWIDTH 16 0
BBX 13 13 1 -2
BITMAP
8008
4010
2020
1040
0880
0500
0200
0500
0880
1040
2020
4010
8008
ENDCHAR
STARTCHAR C314
ENCODING 204
SWIDTH 666 0
DWIDTH 16 0
BBX 13 13 1 -2
BITMAP
8008
4010
2020
1040
0880
0500
0200
0500
0880
1040
2020
4010
8008
ENDCHAR
STARTCHAR C315
ENCODING 205
SWIDTH 666 0
DWIDTH 16 0
BBX 13 13 1 -2
BITMAP
8008
4010
2020
1040
0880
0500
0200
0500
0880
1040
2020
4010
8008
ENDCHAR
STARTCHAR C316
ENCODING 206
SWIDTH 666 0
DWIDTH 16 0
BBX 12 15 3 -3
BITMAP
6000
f000
f000
6000
9000
f000
f000
f000
f180
f7e0
fff0
fe30
7c60
30c0
0100
ENDCHAR
STARTCHAR C317
ENCODING 207
SWIDTH 666 0
DWIDTH 16 0
BBX 13 13 1 -2
BITMAP
8008
4010
2020
1040
0880
0500
0200
0500
0880
1040
2020
4010
8008
ENDCHAR
STARTCHAR C320
ENCODING 208
SWIDTH 666 0
DWIDTH 16 0
BBX 13 13 1 -2
BITMAP
8008
4010
2020
1040
0880
0500
0200
0500
0880
1040
2020
4010
8008
ENDCHAR
STARTCHAR C321
ENCODING 209
SWIDTH 666 0
DWIDTH 16 0
BBX 13 13 1 -2
BITMAP
8008
4010
2020
1040
0880
0500
0200
0500
0880
1040
2020
4010
8008
ENDCHAR
STARTCHAR C322
ENCODING 210
SWIDTH 666 0
DWIDTH 16 0
BBX 13 13 1 -2
BITMAP
8008
4010
2020
1040
0880
0500
0200
0500
0880
1040
2020
4010
8008
ENDCHAR
STARTCHAR C323
ENCODING 211
SWIDTH 666 0
DWIDTH 16 0
BBX 13 13 1 -2
BITMAP
8008
4010
2020
1040
0880
0500
0200
0500
0880
1040
2020
4010
8008
ENDCHAR
STARTCHAR C324
ENCODING 212
SWIDTH 666 0
DWIDTH 16 0
BBX 10 14 2 -2
BITMAP
3f00
f580
7f80
f1c0
f140
eec0
d1c0
dfc0
72c0
3680
0a00
1b00
3b00
3100
ENDCHAR
STARTCHAR C325
ENCODING 213
SWIDTH 666 0
DWIDTH 16 0
BBX 13 13 1 -2
BITMAP
8008
4010
2020
1040
0880
0500
0200
0500
0880
1040
2020
4010
8008
ENDCHAR
STARTCHAR C326
ENCODING 214
SWIDTH 666 0
DWIDTH 16 0
BBX 13 13 1 -2
BITMAP
8008
4010
2020
1040
0880
0500
0200
0500
0880
1040
2020
4010
8008
ENDCHAR
STARTCHAR C327
ENCODING 215
SWIDTH 666 0
DWIDTH 16 0
BBX 13 13 1 -2
BITMAP
8008
4010
2020
1040
0880
0500
0200
0500
0880
1040
2020
4010
8008
ENDCHAR
STARTCHAR C330
ENCODING 216
SWIDTH 666 0
DWIDTH 16 0
BBX 13 13 1 -2
BITMAP
8008
4010
2020
1040
0880
0500
0200
0500
0880
1040
2020
4010
8008
ENDCHAR
STARTCHAR C331
ENCODING 217
SWIDTH 666 0
DWIDTH 16 0
BBX 12 14 2 -2
BITMAP
3c00
6a00
ff00
e300
fd00
b900
bd00
dd00
3c80
34c0
3460
3470
7630
e300
ENDCHAR
STARTCHAR C332
ENCODING 218
SWIDTH 666 0
DWIDTH 16 0
BBX 10 14 2 -2
BITMAP
1c00
0a00
1e00
3f80
3f80
6ec0
cfc0
8f00
1b00
1b00
1b00
1b00
1b00
3600
ENDCHAR
STARTCHAR C333
ENCODING 219
SWIDTH 666 0
DWIDTH 16 0
BBX 14 13 1 -1
BITMAP
2fd0
3170
a0b4
a254
a634
2650
22b0
3150
18a0
2d50
76a8
d334
6018
ENDCHAR
STARTCHAR C334
ENCODING 220
SWIDTH 666 0
DWIDTH 16 0
BBX 13 13 1 -1
BITMAP
0f80
1040
1240
1740
1240
1240
0880
0880
efb8
a028
3fe0
28a0
4010
ENDCHAR
STARTCHAR C335
ENCODING 221
SWIDTH 666 0
DWIDTH 16 0
BBX 13 13 1 -2
BITMAP
8008
4010
2020
1040
0880
0500
0200
0500
0880
1040
2020
4010
8008
ENDCHAR
STARTCHAR C336
ENCODING 222
SWIDTH 666 0
DWIDTH 16 0
BBX 13 13 1 -2
BITMAP
8008
4010
2020
1040
0880
0500
0200
0500
0880
1040
2020
4010
8008
ENDCHAR
STARTCHAR C337
ENCODING 223
SWIDTH 666 0
DWIDTH 16 0
BBX 13 13 1 -2
BITMAP
8008
4010
2020
1040
0880
0500
0200
0500
0880
1040
2020
4010
8008
ENDCHAR
STARTCHAR C340
ENCODING 224
SWIDTH 666 0
DWIDTH 16 0
BBX 10 14 3 -2
BITMAP
0600
0f00
0f00
6e00
7ec0
3fc0
3f00
1c00
1c00
7c00
fd80
ffc0
7f80
3f00
ENDCHAR
STARTCHAR C341
ENCODING 225
SWIDTH 666 0
DWIDTH 16 0
BBX 14 10 1 0
BITMAP
7060
f8f0
f9e0
7bd0
1bb4
0f4c
ffb0
afec
7d58
0140
ENDCHAR
STARTCHAR C342
ENCODING 226
SWIDTH 666 0
DWIDTH 16 0
BBX 14 12 1 -1
BITMAP
0780
0040
5f00
a090
ae40
9f40
d350
5310
4ed0
a1e0
effc
3ff8
ENDCHAR
STARTCHAR C343
ENCODING 227
SWIDTH 666 0
DWIDTH 16 0
BBX 11 14 2 -2
BITMAP
2c00
1800
1800
6800
d800
1f80
3fc0
17e0
03e0
00e0
0860
1060
11c0
0f00
ENDCHAR
STARTCHAR C344
ENCODING 228
SWIDTH 666 0
DWIDTH 16 0
BBX 13 12 1 -2
BITMAP
2410
2c08
7808
2c08
ff08
eff8
cff8
1ff8
1fd8
1618
3410
0c10
ENDCHAR
STARTCHAR C345
ENCODING 229
SWIDTH 666 0
DWIDTH 16 0
BBX 11 10 2 2
BITMAP
1f00
7fc0
47c0
fc60
cfe0
cce0
fce0
7fc0
7fc0
1f00
ENDCHAR
STARTCHAR C346
ENCODING 230
SWIDTH 666 0
DWIDTH 16 0
BBX 12 10 1 -1
BITMAP
0020
0010
2810
7810
abf0
fbf0
77f0
0ff0
3670
0c20
ENDCHAR
STARTCHAR C347
ENCODING 231
SWIDTH 666 0
DWIDTH 16 0
BBX 13 13 1 -2
BITMAP
8008
4010
2020
1040
0880
0500
0200
0500
0880
1040
2020
4010
8008
ENDCHAR
STARTCHAR C350
ENCODING 232
SWIDTH 666 0
DWIDTH 16 0
BBX 13 13 1 -2
BITMAP
8008
4010
2020
1040
0880
0500
0200
0500
0880
1040
2020
4010
8008
ENDCHAR
STARTCHAR C351
ENCODING 233
SWIDTH 666 0
DWIDTH 16 0
BBX 13 13 1 -2
BITMAP
8008
4010
2020
1040
0880
0500
0200
0500
0880
1040
2020
4010
8008
ENDCHAR
STARTCHAR C352
ENCODING 234
SWIDTH 666 0
DWIDTH 16 0
BBX 13 13 1 -2
BITMAP
8008
4010
2020
1040
0880
0500
0200
0500
0880
1040
2020
4010
8008
ENDCHAR
STARTCHAR C353
ENCODING 235
SWIDTH 666 0
DWIDTH 16 0
BBX 9 11 3 -1
BITMAP
2200
3e00
2a00
3e00
7700
ff80
ff80
5d00
1c00
1400
3600
ENDCHAR
STARTCHAR C354
ENCODING 236
SWIDTH 666 0
DWIDTH 16 0
BBX 13 13 1 -2
BITMAP
8008
4010
2020
1040
0880
0500
0200
0500
0880
1040
2020
4010
8008
ENDCHAR
STARTCHAR C355
ENCODING 237
SWIDTH 666 0
DWIDTH 16 0
BBX 13 13 1 -2
BITMAP
8008
4010
2020
1040
0880
0500
0200
0500
0880
1040
2020
4010
8008
ENDCHAR
STARTCHAR C356
ENCODING 238
SWIDTH 666 0
DWIDTH 16 0
BBX 13 13 1 -2
BITMAP
8008
4010
2020
1040
0880
0500
0200
0500
0880
1040
2020
4010
8008
ENDCHAR
STARTCHAR C357
ENCODING 239
SWIDTH 666 0
DWIDTH 16 0
BBX 7 12 4 -1
BITMAP
10
38
38
10
ee
fa
f2
ba
ba
28
6c
ee
ENDCHAR
STARTCHAR C360
ENCODING 240
SWIDTH 666 0
DWIDTH 16 0
BBX 10 14 2 -1
BITMAP
ffc0
6b80
3f00
3d00
1a00
1a00
1e00
1e00
0c00
0c00
0c00
0c00
0800
0800
ENDCHAR
STARTCHAR C361
ENCODING 241
SWIDTH 666 0
DWIDTH 16 0
BBX 13 13 1 -2
BITMAP
8008
4010
2020
1040
0880
0500
0200
0500
0880
1040
2020
4010
8008
ENDCHAR
STARTCHAR C362
ENCODING 242
SWIDTH 666 0
DWIDTH 16 0
BBX 13 13 1 -2
BITMAP
8008
4010
2020
1040
0880
0500
0200
0500
0880
1040
2020
4010
8008
ENDCHAR
STARTCHAR C363
ENCODING 243
SWIDTH 666 0
DWIDTH 16 0
BBX 12 13 1 -2
BITMAP
0780
1c00
7000
bfc0
4f80
12f0
01e0
06d0
1f40
1d20
3480
5000
2000
ENDCHAR
STARTCHAR C364
ENCODING 244
SWIDTH 666 0
DWIDTH 16 0
BBX 13 13 1 -2
BITMAP
8008
4010
2020
1040
0880
0500
0200
0500
0880
1040
2020
4010
8008
ENDCHAR
STARTCHAR C365
ENCODING 245
SWIDTH 666 0
DWIDTH 16 0
BBX 11 14 3 -2
BITMAP
8000
6c00
3800
6800
f800
d800
3800
7f80
ffc0
bfa0
9080
5280
1280
1080
ENDCHAR
STARTCHAR C366
ENCODING 246
SWIDTH 666 0
DWIDTH 16 0
BBX 13 13 1 -2
BITMAP
13c0
27e0
4c90
dbc8
f460
d7b0
d758
6f58
3178
9ed8
4990
3f20
1e40
ENDCHAR
STARTCHAR C367
ENCODING 247
SWIDTH 666 0
DWIDTH 16 0
BBX 13 13 1 -2
BITMAP
8008
4010
2020
1040
0880
0500
0200
0500
0880
1040
2020
4010
8008
ENDCHAR
STARTCHAR C370
ENCODING 248
SWIDTH 666 0
DWIDTH 16 0
BBX 13 13 1 -2
BITMAP
8008
4010
2020
1040
0880
0500
0200
0500
0880
1040
2020
4010
8008
ENDCHAR
STARTCHAR C371
ENCODING 249
SWIDTH 666 0
DWIDTH 16 0
BBX 13 13 1 -1
BITMAP
0200
0200
2720
1740
0f80
3fe0
fff8
3fe0
0f80
1740
2720
0200
0200
ENDCHAR
STARTCHAR C372
ENCODING 250
SWIDTH 666 0
DWIDTH 16 0
BBX 13 13 1 -2
BITMAP
8008
4010
2020
1040
0880
0500
0200
0500
0880
1040
2020
4010
8008
ENDCHAR
STARTCHAR C373
ENCODING 251
SWIDTH 666 0
DWIDTH 16 0
BBX 13 13 1 -2
BITMAP
8008
4010
2020
1040
0880
0500
0200
0500
0880
1040
2020
4010
8008
ENDCHAR
STARTCHAR C374
ENCODING 252
SWIDTH 666 0
DWIDTH 16 0
BBX 13 13 1 -2
BITMAP
8008
4010
2020
1040
0880
0500
0200
0500
0880
1040
2020
4010
8008
ENDCHAR
STARTCHAR C375
ENCODING 253
SWIDTH 666 0
DWIDTH 16 0
BBX 13 13 1 -2
BITMAP
8008
4010
2020
1040
0880
0500
0200
0500
0880
1040
2020
4010
8008
ENDCHAR
STARTCHAR C376
ENCODING 254
SWIDTH 666 0
DWIDTH 16 0
BBX 13 13 1 -2
BITMAP
8008
4010
2020
1040
0880
0500
0200
0500
0880
1040
2020
4010
8008
ENDCHAR
STARTCHAR C377
ENCODING 255
SWIDTH 666 0
DWIDTH 16 0
BBX 13 13 1 -2
BITMAP
8008
4010
2020
1040
0880
0500
0200
0500
0880
1040
2020
4010
8008
ENDCHAR
ENDFONT
